# xmcd
# 
# Track frame offsets:
#     150
#     11432
#     22987
#     30825
#     40460
#     53735
#     73527
#     92982
#     122500
#     136230
#     149942
#     163992
#     184690
#     214902
#     239445
# 
# Disc length: 3270
# 
# Revision: 3
# Processed by: cddbd v1.5.2PL0 Copyright (c) Steve Scherf et al.
# Submitted via: BonkEnc v1.0.5
# 
DISCID=d40cc40f
DTITLE=Zillertaler Schürzenjäger - Zillertaler Schürzenjäger live
DYEAR=0
DGENRE=
TTITLE0=Die Berge sind mein zu Haus
TTITLE1=Die Nacht nimmt nun Abschied
TTITLE2=Hey - Mann - Polka
TTITLE3=Tirol i bin a Kind von Dir
TTITLE4=Ohne Musig geht nix
TTITLE5=Frag die Zigeunerin
TTITLE6=War es ein Traum
TTITLE7=Volkstümliche Potpourr 1
TTITLE8=Hirschbichlalm Boarischer
TTITLE9=Zillertaler Hochzeitsmarsch
TTITLE10=Ich lieb die Berge meiner Heimat
TTITLE11=Sierra Madre
TTITLE12=Logo, logo
TTITLE13=Rock Potpourri
TTITLE14=Sonata Alpin
EXTD=
EXTT0=
EXTT1=
EXTT2=
EXTT3=
EXTT4=
EXTT5=
EXTT6=
EXTT7=
EXTT8=
EXTT9=
EXTT10=
EXTT11=
EXTT12=
EXTT13=
EXTT14=
PLAYORDER=
